<svg width="20px" height="20px" viewBox="0 0 20 20" version="1.1" xmlns="http://www.w3.org/2000/svg" xmlns:xlink="http://www.w3.org/1999/xlink">
    <g id="HP" stroke="none" stroke-width="1" fill="none" fill-rule="evenodd">
        <g id="D---SebinaNext-Hover-card" transform="translate(-737.000000, -220.000000)" fill="#000000" fill-rule="nonzero">
            <path d="M734.919146,230.925264 C734.407039,230.925264 734,230.505216 734,229.993385 C734,229.481555 734.407039,229.074736 734.919146,229.074736 L746.067203,229.074736 L746.067203,217.931879 C746.068031,217.420048 746.488306,217 747.000414,217 C747.512521,217 747.91956,217.420048 747.91956,217.931879 L747.91956,229.074736 L759.067617,229.074736 C759.579724,229.074736 760,229.481555 760,229.993385 C760,230.505216 759.579724,230.925264 759.067617,230.925264 L747.91956,230.925264 L747.91956,242.068121 C747.91956,242.579952 747.512521,243 747.000414,243 C746.488306,243 746.068031,242.579952 746.068031,242.068121 L746.068031,230.925264 L734.919146,230.925264 Z" id="Path" transform="translate(747.000000, 230.000000) rotate(-45.000000) translate(-747.000000, -230.000000) "></path>
        </g>
    </g>
</svg>